#!OML:ASF H:\BabyWalks\Project 1\Capture day 1\Session 1\baby.ASF
:FULLY-SPECIFIED
:DEGREES
271
root 5.31796 17.4618 -20.4704 8.14229 54.6972 3.06968
lowerback 23.4518 -1.65718 -6.28861
upperback 5.74087 -3.56792 -2.72117
thorax -6.5056 -1.53595 1.61136
lowerneck -6.14244 -4.09634 0.717157
upperneck 0.0480399 -5.63721 6.56602
head 1.24089 -2.6953 1.77214
rclavicle 3.02153e-014 -7.95139e-015
rhumerus -58.4716 13.525 -94.3944
rradius 52.7277
rwrist 1.6617
rhand -12.9365 -18.3242
rfingers 7.12502
rthumb 13.1544 -47.8893
lclavicle 3.02153e-014 -7.95139e-015
lhumerus -37.6343 -6.77329 67.8536
lradius 59.9181
lwrist -8.28497
lhand -1.80997 5.6389
lfingers 7.12502
lthumb 23.8556 34.1775
rfemur -34.0295 15.7127 15.1237
rtibia 57.964
rfoot -16.287 18.5043
rtoes -4.38528
lfemur -14.1586 10.5227 -12.5051
ltibia 32.5621
lfoot -24.3163 -6.13845
ltoes -8.9691
272
root 5.40997 17.4972 -20.4086 8.54237 54.3075 3.22272
lowerback 23.4701 -1.81787 -6.3242
upperback 5.64342 -3.79898 -2.73979
thorax -6.60597 -1.64372 1.67764
lowerneck -6.13729 -3.91222 0.763729
upperneck 0.0460073 -5.39217 6.49313
head 1.22746 -2.57429 1.74884
rclavicle 5.725e-014 -1.59028e-015
rhumerus -58.9902 13.4282 -94.1766
rradius 51.9098
rwrist 1.96136
rhand -11.9291 -18.3611
rfingers 7.12502
rthumb 14.1253 -47.8609
lclavicle 5.725e-014 -1.59028e-015
lhumerus -36.581 -6.35465 67.1948
lradius 61.1277
lwrist -7.93965
lhand -2.33555 5.76256
lfingers 7.12502
lthumb 23.3515 34.3661
rfemur -34.5293 15.248 15.2024
rtibia 56.191
rfoot -16.5531 17.8438
rtoes -3.9895
lfemur -13.3992 10.3581 -12.6374
ltibia 31.5232
lfoot -24.0687 -5.75299
ltoes -9.11282
273
root 5.50343 17.5332 -20.3448 8.97388 53.9303 3.4279
lowerback 23.4954 -1.98182 -6.35628
upperback 5.53819 -4.03463 -2.75635
thorax -6.71812 -1.75298 1.74625
lowerneck -6.10971 -3.73474 0.81072
upperneck 0.033797 -5.15431 6.38969
head 1.20629 -2.45816 1.71573
rclavicle -2.46493e-014 3.81667e-014
rhumerus -59.5561 13.3346 -93.9148
rradius 51.1857
rwrist 2.25751
rhand -11.1391 -18.3507
rfingers 7.12502
rthumb 14.8865 -47.7958
lclavicle -2.46493e-014 3.81667e-014
lhumerus -35.616 -6.08637 66.6053
lradius 62.4042
lwrist -7.5552
lhand -2.76298 5.89471
lfingers 7.12502
lthumb 22.9414 34.5497
rfemur -34.9434 14.7549 15.255
rtibia 54.3203
rfoot -16.7693 17.1685
rtoes -3.55204
lfemur -12.5932 10.1596 -12.8053
ltibia 30.4139
lfoot -23.7634 -5.36898
ltoes -9.36645
274
root 5.59814 17.5562 -20.2804 9.41884 53.574 3.66927
lowerback 23.5349 -2.15071 -6.37796
upperback 5.42737 -4.27522 -2.7643
thorax -6.84338 -1.86387 1.82092
lowerneck -6.07908 -3.55555 0.845772
upperneck 0.0317535 -4.9136 6.2661
head 1.18784 -2.34078 1.67816
rclavicle 4.05521e-014 3.33958e-014
rhumerus -60.1642 13.2609 -93.6141
rradius 50.5602
rwrist 2.50939
rhand -10.5561 -18.2839
rfingers 7.12502
rthumb 15.4481 -47.6866
lclavicle 4.05521e-014 3.33958e-014
lhumerus -34.7435 -5.95519 66.082
lradius 63.7362
lwrist -7.14135
lhand -3.11766 6.02917
lfingers 7.12502
lthumb 22.601 34.7261
rfemur -35.3176 14.2207 15.29
rtibia 52.4215
rfoot -16.9311 16.4611
rtoes -3.03919
lfemur -11.7649 9.93508 -12.9921
ltibia 29.2798
lfoot -23.4188 -4.98621
ltoes -9.80352
275
root 5.69389 17.5916 -20.2128 9.86368 53.2407 3.93448
lowerback 23.5889 -2.3238 -6.3834
upperback 5.31155 -4.51814 -2.7609
thorax -6.98168 -1.97525 1.90089
lowerneck -6.0107 -3.38022 0.876954
upperneck 0.00474515 -4.67484 6.11312
head 1.15452 -2.22622 1.6323
rclavicle 8.0309e-014 -6.36111e-015
rhumerus -60.8154 13.2146 -93.2828
rradius 50.0389
rwrist 2.67625
rhand -10.1541 -18.179
rfingers 7.12502
rthumb 15.8352 -47.5514
lclavicle 8.0309e-014 -6.36111e-015
lhumerus -33.9696 -5.9511 65.6165
lradius 65.1144
lwrist -6.72201
lhand -3.41863 6.1592
lfingers 7.12502
lthumb 22.3121 34.891
rfemur -35.5595 13.6447 15.3306
rtibia 50.448
rfoot -17.0626 15.6731
rtoes -2.51606
lfemur -10.8924 9.67343 -13.1938
ltibia 28.0974
lfoot -23.0279 -4.62392
ltoes -10.3211
276
root 5.79054 17.6252 -20.1431 10.3091 52.9343 4.22401
lowerback 23.6537 -2.50296 -6.38284
upperback 5.19741 -4.7668 -2.74246
thorax -7.12227 -2.08896 1.99659
lowerneck -5.93517 -3.20375 0.908617
upperneck -0.0317989 -4.43341 5.9252
head 1.11629 -2.11124 1.57523
rclavicle 4.6118e-014 -2.06736e-014
rhumerus -61.4895 13.2149 -92.927
rradius 49.6196
rwrist 2.73257
rhand -9.8777 -18.0518
rfingers 7.12502
rthumb 16.1014 -47.4029
lclavicle 4.6118e-014 -2.06736e-014
lhumerus -33.2879 -6.04709 65.1993
lradius 66.5277
lwrist -6.31792
lhand -3.726 6.28318
lfingers 7.12502
lthumb 22.0171 35.05
rfemur -35.7245 13.0118 15.3757
rtibia 48.4779
rfoot -17.1472 14.783
rtoes -1.96269
lfemur -10.0062 9.38855 -13.4024
ltibia 26.9127
lfoot -22.6067 -4.29709
ltoes -10.9354
277
root 5.88795 17.6569 -20.0708 10.7542 52.6568 4.53431
lowerback 23.7273 -2.69022 -6.38011
upperback 5.08729 -5.02416 -2.70831
thorax -7.26068 -2.20651 2.11165
lowerneck -5.87143 -3.02012 0.958672
upperneck -0.0704176 -4.18318 5.68764
head 1.07793 -1.99239 1.49914
rclavicle 5.1684e-014 3.18055e-014
rhumerus -62.1713 13.272 -92.5569
rradius 49.293
rwrist 2.6661
rhand -9.69299 -17.9114
rfingers 7.12502
rthumb 16.2793 -47.248
lclavicle 5.1684e-014 3.18055e-014
lhumerus -32.6996 -6.21899 64.8194
lradius 67.964
lwrist -5.94594
lhand -4.0455 6.3983
lfingers 7.12502
lthumb 21.7103 35.2009
rfemur -35.8061 12.3142 15.4311
rtibia 46.5047
rfoot -17.1548 13.749
rtoes -1.37769
lfemur -9.08141 9.07988 -13.6129
ltibia 25.6602
lfoot -22.1137 -4.01874
ltoes -11.6131
278
root 5.98613 17.6873 -19.9956 11.1971 52.4055 4.86362
lowerback 23.7991 -2.88287 -6.37329
upperback 4.98671 -5.28496 -2.66026
thorax -7.38591 -2.32591 2.24079
lowerneck -5.82356 -2.83415 1.02625
upperneck -0.113518 -3.93068 5.4043
head 1.04001 -1.87284 1.40538
rclavicle -1.12115e-013 3.18055e-014
rhumerus -62.8451 13.3736 -92.1711
rradius 49.0491
rwrist 2.47598
rhand -9.54815 -17.779
rfingers 7.12502
rthumb 16.4187 -47.1042
lclavicle -1.12115e-013 3.18055e-014
lhumerus -32.2065 -6.45358 64.4728
lradius 69.4295
lwrist -5.62867
lhand -4.39033 6.51375
lfingers 7.12502
lthumb 21.3791 35.3543
rfemur -35.8233 11.5568 15.4984
rtibia 44.6009
rfoot -17.1017 12.5445
rtoes -0.70915
lfemur -8.15559 8.75657 -13.822
ltibia 24.4248
lfoot -21.599 -3.79381
ltoes -12.3217
279
root 6.08464 17.7163 -19.9171 11.6382 52.1815 5.20196
lowerback 23.8558 -3.07851 -6.35776
upperback 4.89094 -5.54438 -2.5965
thorax -7.49673 -2.44517 2.38134
lowerneck -5.77116 -2.64976 1.1109
upperneck -0.168199 -3.68031 5.07484
head 0.997208 -1.75527 1.29427
rclavicle 5.24792e-014 9.54166e-015
rhumerus -63.513 13.5062 -91.7685
rradius 48.8802
rwrist 2.16752
rhand -9.40008 -17.6677
rfingers 7.12502
rthumb 16.5613 -46.981
lclavicle 5.24792e-014 9.54166e-015
lhumerus -31.8005 -6.74873 64.1598
lradius 70.8903
lwrist -5.37016
lhand -4.79206 6.61348
lfingers 7.12502
lthumb 20.9932 35.4973
rfemur -35.7925 10.7419 15.5849
rtibia 42.7981
rfoot -16.9861 11.1353
rtoes 0.0198256
lfemur -7.23876 8.42253 -14.0207
ltibia 23.2074
lfoot -21.0527 -3.63307
ltoes -13.0129
280
root 6.18309 17.7439 -19.8351 12.0719 51.9856 5.53933
lowerback 23.8957 -3.27576 -6.32611
upperback 4.80195 -5.7985 -2.51713
thorax -7.59108 -2.56274 2.52756
lowerneck -5.73813 -2.4698 1.21576
upperneck -0.2182 -3.43763 4.69731
head 0.959071 -1.64169 1.16447
rclavicle 4.85035e-014 6.75868e-014
rhumerus -64.1596 13.6479 -91.3426
rradius 48.7728
rwrist 1.75528
rhand -9.21245 -17.5877
rfingers 7.12502
rthumb 16.7419 -46.8858
lclavicle 4.85035e-014 6.75868e-014
lhumerus -31.4912 -7.08698 63.8804
lradius 72.3598
lwrist -5.17556
lhand -5.22725 6.69346
lfingers 7.12502
lthumb 20.5751 35.6231
rfemur -35.7237 9.88382 15.694
rtibia 41.1254
rfoot -16.8081 9.49147
rtoes 0.863423
lfemur -6.3332 8.08523 -14.2005
ltibia 22.0049
lfoot -20.4667 -3.53779
ltoes -13.6713
